<svg width="33" height="33" viewBox="0 0 33 33" fill="none" xmlns="http://www.w3.org/2000/svg">
<rect x="0.214844" y="0.5" width="32" height="32" rx="8" fill="#E3E9FC"/>
<path d="M16.2172 17.0953C16.5486 17.0953 16.8172 16.8267 16.8172 16.4953C16.8172 16.1639 16.5486 15.8953 16.2172 15.8953C15.8858 15.8953 15.6172 16.1639 15.6172 16.4953C15.6172 16.8267 15.8858 17.0953 16.2172 17.0953Z" stroke="#1638B1" stroke-width="1.54286" stroke-linecap="round" stroke-linejoin="round"/>
<path d="M16.2172 12.8953C16.5486 12.8953 16.8172 12.6267 16.8172 12.2953C16.8172 11.9639 16.5486 11.6953 16.2172 11.6953C15.8858 11.6953 15.6172 11.9639 15.6172 12.2953C15.6172 12.6267 15.8858 12.8953 16.2172 12.8953Z" stroke="#1638B1" stroke-width="1.54286" stroke-linecap="round" stroke-linejoin="round"/>
<path d="M16.2172 21.2953C16.5486 21.2953 16.8172 21.0267 16.8172 20.6953C16.8172 20.3639 16.5486 20.0953 16.2172 20.0953C15.8858 20.0953 15.6172 20.3639 15.6172 20.6953C15.6172 21.0267 15.8858 21.2953 16.2172 21.2953Z" stroke="#1638B1" stroke-width="1.54286" stroke-linecap="round" stroke-linejoin="round"/>
</svg>
